<svg version="1.1" xmlns="http://www.w3.org/2000/svg" xmlns:xlink="http://www.w3.org/1999/xlink" width="654" height="157"><defs><clipPath id="QgQKXOezAUUJ"><path fill="none" stroke="none" d=" M 0 0 L 654 0 L 654 157 L 0 157 L 0 0 Z"/></clipPath></defs><g transform="scale(1,1)" clip-path="url(#QgQKXOezAUUJ)"><g transform="translate(-70,-258)"><path fill="#000000" stroke="none" paint-order="stroke fill markers" fill-rule="evenodd" d=" M 450.5 115 L 471.5 115 C 472.880711874577 115 474 116.11928812542301 474 117.5 L 474 138.5 C 474 139.88071187457697 472.880711874577 141 471.5 141 L 450.5 141 C 449.119288125423 141 448 139.88071187457697 448 138.5 L 448 117.5 C 448 116.11928812542301 449.119288125423 115 450.5 115 Z"/><path fill="none" stroke="rgb(0,0,0)" paint-order="fill stroke markers" d=" M 450.5 115 L 471.5 115 C 472.880711874577 115 474 116.11928812542301 474 117.5 L 474 138.5 C 474 139.88071187457697 472.880711874577 141 471.5 141 L 450.5 141 C 449.119288125423 141 448 139.88071187457697 448 138.5 L 448 117.5 C 448 116.11928812542301 449.119288125423 115 450.5 115 Z" stroke-opacity="1" stroke-linecap="round" stroke-linejoin="round" stroke-miterlimit="10"/><path fill="none" stroke="rgb(68,68,68)" paint-order="fill stroke markers" d=" M 453 130 L 458 135 Z" stroke-opacity="1" stroke-linecap="round" stroke-linejoin="round" stroke-miterlimit="10" stroke-width="4"/><path fill="none" stroke="rgb(68,68,68)" paint-order="fill stroke markers" d=" M 458 135 L 468 121 Z" stroke-opacity="1" stroke-linecap="round" stroke-linejoin="round" stroke-miterlimit="10" stroke-width="4"/><text fill="rgb(0,0,0)" stroke="none" font-family="geogebra-sans-serif, sans-serif" font-size="32px" font-style="normal" font-weight="normal" text-decoration="normal" x="483" y="140" text-anchor="start" dominant-baseline="alphabetic" fill-opacity="1">Serif</text><g transform="scale(35,35)"><g transform="translate(2.2857142857142856,9.942752057142858)"><path fill="rgb(0,0,0)" stroke="none" paint-order="stroke fill markers" d=" M 0.644 -0.68 L 0.675 -0.439 L 0.628 -0.439 Q 0.623 -0.47900000000000004 0.617 -0.5045000000000001 Q 0.611 -0.53 0.598 -0.557 Q 0.585 -0.584 0.5645 -0.599 Q 0.544 -0.614 0.51 -0.6235 Q 0.47600000000000003 -0.633 0.429 -0.633 L 0.289 -0.633 L 0.289 -0.364 L 0.339 -0.364 Q 0.406 -0.364 0.425 -0.391 Q 0.444 -0.418 0.444 -0.481 L 0.491 -0.481 L 0.491 -0.2 L 0.444 -0.2 Q 0.444 -0.263 0.425 -0.29 Q 0.406 -0.317 0.339 -0.317 L 0.289 -0.317 L 0.289 -0.047 L 0.424 -0.047 L 0.424 0 Q 0.38 -0.003 0.222 -0.003 Q 0.077 -0.003 0.039 0 L 0.039 -0.047 L 0.147 -0.047 L 0.147 -0.633 L 0.039 -0.633 L 0.039 -0.68 L 0.644 -0.68 Z"/></g><g transform="translate(3.009714285714286,9.527027657142858) scale(0.7,0.7)"><path fill="rgb(0,0,0)" stroke="none" paint-order="stroke fill markers" d=" M 0.331 0.24 L 0.331 0.24 Q 0.331 0.25 0.321 0.25 Q 0.309 0.25 0.268 0.209 Q 0.20600000000000002 0.147 0.165 0.062 Q 0.099 -0.074 0.099 -0.25 Q 0.099 -0.419 0.162 -0.555 Q 0.214 -0.666 0.294 -0.733 Q 0.315 -0.75 0.321 -0.75 Q 0.331 -0.75 0.331 -0.74 Q 0.331 -0.735 0.318 -0.723 Q 0.157 -0.559 0.157 -0.25 Q 0.157 0.058 0.314 0.218 Q 0.331 0.23500000000000001 0.331 0.24 Z"/></g><g transform="translate(3.2820142857142858,9.527027657142858) scale(0.7,0.7)"><path fill="rgb(0,0,0)" stroke="none" paint-order="stroke fill markers" d=" M 0.28400000000000003 -0.625 Q 0.28400000000000003 -0.594 0.253 -0.578 Q 0.242 -0.5720000000000001 0.231 -0.5720000000000001 Q 0.201 -0.5720000000000001 0.194 -0.599 Q 0.193 -0.604 0.193 -0.608 Q 0.193 -0.636 0.221 -0.653 Q 0.234 -0.661 0.247 -0.661 Q 0.277 -0.661 0.28300000000000003 -0.634 L 0.28300000000000003 -0.633 Q 0.28400000000000003 -0.629 0.28400000000000003 -0.625 M 0.20800000000000002 -0.249 L 0.169 -0.14400000000000002 Q 0.14100000000000001 -0.063 0.14 -0.044 Q 0.14 -0.011 0.164 -0.011 Q 0.227 -0.011 0.262 -0.123 L 0.266 -0.135 Q 0.271 -0.151 0.276 -0.152 L 0.276 -0.153 L 0.281 -0.153 Q 0.293 -0.153 0.293 -0.14300000000000002 Q 0.293 -0.125 0.271 -0.079 Q 0.228 0.011 0.162 0.011 Q 0.109 0.011 0.088 -0.033 Q 0.08 -0.051000000000000004 0.08 -0.07100000000000001 Q 0.08 -0.091 0.10300000000000001 -0.151 Q 0.17300000000000001 -0.339 0.17200000000000001 -0.336 Q 0.183 -0.364 0.183 -0.388 Q 0.183 -0.42 0.158 -0.42 Q 0.10300000000000001 -0.42 0.068 -0.329 L 0.068 -0.328 Q 0.062 -0.313 0.057 -0.296 Q 0.046 -0.279 0.041 -0.278 Q 0.029 -0.278 0.029 -0.28800000000000003 Q 0.029 -0.306 0.051000000000000004 -0.35100000000000003 Q 0.094 -0.442 0.161 -0.442 Q 0.214 -0.442 0.23500000000000001 -0.397 Q 0.243 -0.38 0.243 -0.36 Q 0.243 -0.34 0.23 -0.307 Q 0.213 -0.261 0.20800000000000002 -0.249 Z"/></g><g transform="translate(3.5235142857142856,9.527027657142858) scale(0.7,0.7)"><path fill="rgb(0,0,0)" stroke="none" paint-order="stroke fill markers" d=" M 0.289 -0.25 L 0.289 -0.25 Q 0.289 -0.081 0.226 0.055 Q 0.17400000000000002 0.166 0.094 0.233 Q 0.073 0.25 0.067 0.25 Q 0.057 0.25 0.057 0.24 Q 0.057 0.23500000000000001 0.07 0.223 Q 0.231 0.059000000000000004 0.231 -0.25 Q 0.231 -0.555 0.081 -0.712 L 0.076 -0.717 Q 0.057 -0.735 0.057 -0.74 Q 0.057 -0.75 0.067 -0.75 Q 0.079 -0.75 0.12 -0.709 Q 0.182 -0.647 0.223 -0.562 Q 0.289 -0.426 0.289 -0.25 Z"/></g><g transform="translate(3.009714285714286,10.189969057142859) scale(0.7,0.7)"><path fill="rgb(0,0,0)" stroke="none" paint-order="stroke fill markers" d=" M 0.396 -0.38 L 0.396 -0.38 Q 0.368 -0.41600000000000004 0.31 -0.42 Q 0.245 -0.42 0.192 -0.354 Q 0.179 -0.338 0.169 -0.32 Q 0.129 -0.247 0.117 -0.148 Q 0.115 -0.132 0.115 -0.12 Q 0.115 -0.038 0.171 -0.017 Q 0.185 -0.011 0.20500000000000002 -0.011 Q 0.295 -0.011 0.367 -0.07100000000000001 Q 0.388 -0.088 0.405 -0.11 Q 0.41200000000000003 -0.12 0.418 -0.12 Q 0.427 -0.12 0.43 -0.107 Q 0.43 -0.096 0.396 -0.064 Q 0.313 0.011 0.203 0.011 Q 0.108 0.011 0.065 -0.065 Q 0.041 -0.106 0.041 -0.158 Q 0.041 -0.26 0.11900000000000001 -0.34700000000000003 Q 0.196 -0.433 0.291 -0.441 Q 0.3 -0.442 0.309 -0.442 Q 0.386 -0.442 0.41600000000000004 -0.395 Q 0.427 -0.377 0.427 -0.356 Q 0.427 -0.312 0.392 -0.296 Q 0.382 -0.292 0.371 -0.292 Q 0.341 -0.292 0.335 -0.318 Q 0.334 -0.322 0.334 -0.327 Q 0.334 -0.34900000000000003 0.352 -0.366 Q 0.366 -0.38 0.396 -0.38 Z"/></g><g transform="translate(4.087824406490634,9.942752057142858)"><path fill="rgb(0,0,0)" stroke="none" paint-order="stroke fill markers" d=" M 0.687 -0.327 L 0.09 -0.327 Q 0.058 -0.327 0.056 -0.34700000000000003 Q 0.056 -0.367 0.089 -0.367 L 0.6880000000000001 -0.367 Q 0.72 -0.367 0.721 -0.34700000000000003 Q 0.721 -0.327 0.687 -0.327 M 0.6880000000000001 -0.133 L 0.089 -0.133 Q 0.057 -0.133 0.056 -0.153 Q 0.056 -0.17300000000000001 0.09 -0.17300000000000001 L 0.687 -0.17300000000000001 Q 0.719 -0.17300000000000001 0.721 -0.153 Q 0.721 -0.133 0.6880000000000001 -0.133 Z"/></g><g transform="translate(5.1436021842684125,7.932752057142858)"><path fill="rgb(0,0,0)" stroke="none" paint-order="stroke fill markers" d=" M 0.32421875 1.759765625 L 0.32421875 -0.0390625 L 0.6611328125 -0.0390625 L 0.6611328125 0.0341796875 L 0.39697265625 0.0341796875 L 0.39697265625 1.759765625 L 0.32421875 1.759765625 Z"/></g><g transform="translate(5.1436021842684125,9.732752057142857)"><path fill="rgb(0,0,0)" stroke="none" paint-order="stroke fill markers" d=" M 0.32421875 1.7587890625 L 0.32421875 -0.0400390625 L 0.39697265625 -0.0400390625 L 0.39697265625 1.68603515625 L 0.6611328125 1.68603515625 L 0.6611328125 1.7587890625 L 0.32421875 1.7587890625 Z"/></g><g transform="translate(5.810602184268412,9.162135057142857)"><path fill="rgb(0,0,0)" stroke="none" paint-order="stroke fill markers" d=" M 0.303 -0.325 L 0.241 -0.076 Q 0.23700000000000002 -0.061 0.23700000000000002 -0.053 Q 0.23700000000000002 -0.039 0.25 -0.036000000000000004 Q 0.257 -0.034 0.269 -0.033 Q 0.294 -0.031 0.321 -0.031 Q 0.34600000000000003 -0.031 0.34900000000000003 -0.03 L 0.354 -0.023 Q 0.355 -0.021 0.355 -0.019 Q 0.355 0 0.334 0 L 0.186 -0.003 L 0.185 -0.003 L 0.054 0 L 0.053 0 Q 0.038 0 0.038 -0.012 Q 0.038 -0.029 0.054 -0.031 L 0.066 -0.031 Q 0.131 -0.031 0.14400000000000002 -0.045 Q 0.15 -0.052000000000000005 0.156 -0.073 Q 0.156 -0.074 0.157 -0.078 L 0.289 -0.607 Q 0.294 -0.625 0.294 -0.631 Q 0.294 -0.648 0.248 -0.649 L 0.247 -0.649 L 0.229 -0.649 Q 0.203 -0.649 0.201 -0.66 Q 0.201 -0.678 0.217 -0.68 L 0.231 -0.68 L 0.721 -0.68 Q 0.745 -0.68 0.747 -0.673 L 0.748 -0.673 Q 0.75 -0.667 0.748 -0.653 L 0.728 -0.48 Q 0.721 -0.457 0.714 -0.455 Q 0.7020000000000001 -0.455 0.7020000000000001 -0.467 Q 0.7020000000000001 -0.47200000000000003 0.704 -0.485 Q 0.707 -0.512 0.707 -0.539 Q 0.707 -0.606 0.673 -0.628 L 0.672 -0.629 Q 0.64 -0.649 0.561 -0.649 L 0.429 -0.649 Q 0.392 -0.649 0.385 -0.638 L 0.384 -0.638 L 0.384 -0.637 Q 0.381 -0.633 0.379 -0.625 L 0.379 -0.624 L 0.378 -0.623 Q 0.377 -0.619 0.375 -0.61 L 0.311 -0.356 L 0.402 -0.356 Q 0.47500000000000003 -0.356 0.5 -0.383 L 0.501 -0.384 Q 0.518 -0.403 0.531 -0.452 Q 0.536 -0.47100000000000003 0.546 -0.47300000000000003 Q 0.557 -0.47300000000000003 0.558 -0.462 Q 0.558 -0.457 0.555 -0.446 L 0.5 -0.229 Q 0.49 -0.209 0.485 -0.20800000000000002 Q 0.47300000000000003 -0.20800000000000002 0.47300000000000003 -0.22 Q 0.47300000000000003 -0.224 0.47600000000000003 -0.231 Q 0.483 -0.261 0.483 -0.28 Q 0.483 -0.309 0.461 -0.318 L 0.461 -0.318 Q 0.442 -0.325 0.4 -0.325 L 0.303 -0.325 Z"/></g><g transform="translate(6.592602184268412,8.749243057142857) scale(0.7,0.7)"><path fill="rgb(0,0,0)" stroke="none" paint-order="stroke fill markers" d=" M 0.331 0.24 L 0.331 0.24 Q 0.331 0.25 0.321 0.25 Q 0.309 0.25 0.268 0.209 Q 0.20600000000000002 0.147 0.165 0.062 Q 0.099 -0.074 0.099 -0.25 Q 0.099 -0.419 0.162 -0.555 Q 0.214 -0.666 0.294 -0.733 Q 0.315 -0.75 0.321 -0.75 Q 0.331 -0.75 0.331 -0.74 Q 0.331 -0.735 0.318 -0.723 Q 0.157 -0.559 0.157 -0.25 Q 0.157 0.058 0.314 0.218 Q 0.331 0.23500000000000001 0.331 0.24 Z"/></g><g transform="translate(6.864902184268413,8.749243057142857) scale(0.7,0.7)"><path fill="rgb(0,0,0)" stroke="none" paint-order="stroke fill markers" d=" M 0.28400000000000003 -0.625 Q 0.28400000000000003 -0.594 0.253 -0.578 Q 0.242 -0.5720000000000001 0.231 -0.5720000000000001 Q 0.201 -0.5720000000000001 0.194 -0.599 Q 0.193 -0.604 0.193 -0.608 Q 0.193 -0.636 0.221 -0.653 Q 0.234 -0.661 0.247 -0.661 Q 0.277 -0.661 0.28300000000000003 -0.634 L 0.28300000000000003 -0.633 Q 0.28400000000000003 -0.629 0.28400000000000003 -0.625 M 0.20800000000000002 -0.249 L 0.169 -0.14400000000000002 Q 0.14100000000000001 -0.063 0.14 -0.044 Q 0.14 -0.011 0.164 -0.011 Q 0.227 -0.011 0.262 -0.123 L 0.266 -0.135 Q 0.271 -0.151 0.276 -0.152 L 0.276 -0.153 L 0.281 -0.153 Q 0.293 -0.153 0.293 -0.14300000000000002 Q 0.293 -0.125 0.271 -0.079 Q 0.228 0.011 0.162 0.011 Q 0.109 0.011 0.088 -0.033 Q 0.08 -0.051000000000000004 0.08 -0.07100000000000001 Q 0.08 -0.091 0.10300000000000001 -0.151 Q 0.17300000000000001 -0.339 0.17200000000000001 -0.336 Q 0.183 -0.364 0.183 -0.388 Q 0.183 -0.42 0.158 -0.42 Q 0.10300000000000001 -0.42 0.068 -0.329 L 0.068 -0.328 Q 0.062 -0.313 0.057 -0.296 Q 0.046 -0.279 0.041 -0.278 Q 0.029 -0.278 0.029 -0.28800000000000003 Q 0.029 -0.306 0.051000000000000004 -0.35100000000000003 Q 0.094 -0.442 0.161 -0.442 Q 0.214 -0.442 0.23500000000000001 -0.397 Q 0.243 -0.38 0.243 -0.36 Q 0.243 -0.34 0.23 -0.307 Q 0.213 -0.261 0.20800000000000002 -0.249 Z"/></g><g transform="translate(7.106402184268413,8.749243057142857) scale(0.7,0.7)"><path fill="rgb(0,0,0)" stroke="none" paint-order="stroke fill markers" d=" M 0.289 -0.25 L 0.289 -0.25 Q 0.289 -0.081 0.226 0.055 Q 0.17400000000000002 0.166 0.094 0.233 Q 0.073 0.25 0.067 0.25 Q 0.057 0.25 0.057 0.24 Q 0.057 0.23500000000000001 0.07 0.223 Q 0.231 0.059000000000000004 0.231 -0.25 Q 0.231 -0.555 0.081 -0.712 L 0.076 -0.717 Q 0.057 -0.735 0.057 -0.74 Q 0.057 -0.75 0.067 -0.75 Q 0.079 -0.75 0.12 -0.709 Q 0.182 -0.647 0.223 -0.562 Q 0.289 -0.426 0.289 -0.25 Z"/></g><g transform="translate(6.453602184268412,9.409352057142858) scale(0.7,0.7)"><path fill="rgb(0,0,0)" stroke="none" paint-order="stroke fill markers" d=" M 0.396 -0.38 L 0.396 -0.38 Q 0.368 -0.41600000000000004 0.31 -0.42 Q 0.245 -0.42 0.192 -0.354 Q 0.179 -0.338 0.169 -0.32 Q 0.129 -0.247 0.117 -0.148 Q 0.115 -0.132 0.115 -0.12 Q 0.115 -0.038 0.171 -0.017 Q 0.185 -0.011 0.20500000000000002 -0.011 Q 0.295 -0.011 0.367 -0.07100000000000001 Q 0.388 -0.088 0.405 -0.11 Q 0.41200000000000003 -0.12 0.418 -0.12 Q 0.427 -0.12 0.43 -0.107 Q 0.43 -0.096 0.396 -0.064 Q 0.313 0.011 0.203 0.011 Q 0.108 0.011 0.065 -0.065 Q 0.041 -0.106 0.041 -0.158 Q 0.041 -0.26 0.11900000000000001 -0.34700000000000003 Q 0.196 -0.433 0.291 -0.441 Q 0.3 -0.442 0.309 -0.442 Q 0.386 -0.442 0.41600000000000004 -0.395 Q 0.427 -0.377 0.427 -0.356 Q 0.427 -0.312 0.392 -0.296 Q 0.382 -0.292 0.371 -0.292 Q 0.341 -0.292 0.335 -0.318 Q 0.334 -0.322 0.334 -0.327 Q 0.334 -0.34900000000000003 0.352 -0.366 Q 0.366 -0.38 0.396 -0.38 Z"/></g><g transform="translate(6.756702184268412,9.409352057142858) scale(0.7,0.7)"><path fill="rgb(0,0,0)" stroke="none" paint-order="stroke fill markers" d=" M 0.334 -0.302 L 0.3 -0.165 Q 0.28300000000000003 -0.097 0.28300000000000003 -0.077 Q 0.28300000000000003 -0.025 0.32 -0.014 Q 0.328 -0.011 0.338 -0.011 Q 0.388 -0.011 0.429 -0.061 Q 0.456 -0.093 0.47100000000000003 -0.14200000000000002 Q 0.47400000000000003 -0.153 0.484 -0.153 Q 0.496 -0.153 0.496 -0.14300000000000002 Q 0.496 -0.11800000000000001 0.465 -0.07100000000000001 Q 0.41100000000000003 0.011 0.336 0.011 Q 0.268 0.011 0.23700000000000002 -0.046 Q 0.231 -0.055 0.228 -0.065 Q 0.20400000000000001 -0.017 0.162 0.002 Q 0.14300000000000002 0.011 0.123 0.011 Q 0.063 0.011 0.039 -0.024 Q 0.029 -0.037 0.029 -0.055 Q 0.029 -0.092 0.061 -0.107 Q 0.07200000000000001 -0.113 0.084 -0.113 Q 0.114 -0.113 0.12 -0.088 Q 0.121 -0.083 0.121 -0.078 Q 0.121 -0.044 0.08700000000000001 -0.028 Q 0.081 -0.025 0.074 -0.024 Q 0.095 -0.011 0.124 -0.011 Q 0.177 -0.011 0.20800000000000002 -0.082 Q 0.214 -0.097 0.219 -0.115 Q 0.273 -0.319 0.273 -0.353 Q 0.267 -0.41500000000000004 0.219 -0.42 Q 0.167 -0.42 0.124 -0.367 L 0.124 -0.366 Q 0.124 -0.365 0.123 -0.365 Q 0.108 -0.34500000000000003 0.096 -0.319 Q 0.091 -0.307 0.08700000000000001 -0.295 L 0.085 -0.289 Q 0.083 -0.278 0.07200000000000001 -0.278 Q 0.06 -0.278 0.06 -0.28800000000000003 Q 0.06 -0.313 0.092 -0.36 Q 0.146 -0.442 0.221 -0.442 Q 0.298 -0.442 0.329 -0.366 Q 0.361 -0.428 0.41400000000000003 -0.44 Q 0.424 -0.442 0.434 -0.442 Q 0.493 -0.442 0.517 -0.40900000000000003 Q 0.527 -0.395 0.527 -0.376 Q 0.527 -0.335 0.49 -0.321 Q 0.481 -0.318 0.47300000000000003 -0.318 Q 0.442 -0.318 0.436 -0.34500000000000003 Q 0.435 -0.34900000000000003 0.435 -0.353 Q 0.435 -0.383 0.464 -0.4 Q 0.47300000000000003 -0.405 0.483 -0.40700000000000003 Q 0.462 -0.42 0.433 -0.42 Q 0.365 -0.42 0.337 -0.314 Q 0.335 -0.308 0.334 -0.302 Z"/></g><g transform="translate(5.810602184268412,10.778244057142855)"><path fill="rgb(0,0,0)" stroke="none" paint-order="stroke fill markers" d=" M 0.303 -0.325 L 0.241 -0.076 Q 0.23700000000000002 -0.061 0.23700000000000002 -0.053 Q 0.23700000000000002 -0.039 0.25 -0.036000000000000004 Q 0.257 -0.034 0.269 -0.033 Q 0.294 -0.031 0.321 -0.031 Q 0.34600000000000003 -0.031 0.34900000000000003 -0.03 L 0.354 -0.023 Q 0.355 -0.021 0.355 -0.019 Q 0.355 0 0.334 0 L 0.186 -0.003 L 0.185 -0.003 L 0.054 0 L 0.053 0 Q 0.038 0 0.038 -0.012 Q 0.038 -0.029 0.054 -0.031 L 0.066 -0.031 Q 0.131 -0.031 0.14400000000000002 -0.045 Q 0.15 -0.052000000000000005 0.156 -0.073 Q 0.156 -0.074 0.157 -0.078 L 0.289 -0.607 Q 0.294 -0.625 0.294 -0.631 Q 0.294 -0.648 0.248 -0.649 L 0.247 -0.649 L 0.229 -0.649 Q 0.203 -0.649 0.201 -0.66 Q 0.201 -0.678 0.217 -0.68 L 0.231 -0.68 L 0.721 -0.68 Q 0.745 -0.68 0.747 -0.673 L 0.748 -0.673 Q 0.75 -0.667 0.748 -0.653 L 0.728 -0.48 Q 0.721 -0.457 0.714 -0.455 Q 0.7020000000000001 -0.455 0.7020000000000001 -0.467 Q 0.7020000000000001 -0.47200000000000003 0.704 -0.485 Q 0.707 -0.512 0.707 -0.539 Q 0.707 -0.606 0.673 -0.628 L 0.672 -0.629 Q 0.64 -0.649 0.561 -0.649 L 0.429 -0.649 Q 0.392 -0.649 0.385 -0.638 L 0.384 -0.638 L 0.384 -0.637 Q 0.381 -0.633 0.379 -0.625 L 0.379 -0.624 L 0.378 -0.623 Q 0.377 -0.619 0.375 -0.61 L 0.311 -0.356 L 0.402 -0.356 Q 0.47500000000000003 -0.356 0.5 -0.383 L 0.501 -0.384 Q 0.518 -0.403 0.531 -0.452 Q 0.536 -0.47100000000000003 0.546 -0.47300000000000003 Q 0.557 -0.47300000000000003 0.558 -0.462 Q 0.558 -0.457 0.555 -0.446 L 0.5 -0.229 Q 0.49 -0.209 0.485 -0.20800000000000002 Q 0.47300000000000003 -0.20800000000000002 0.47300000000000003 -0.22 Q 0.47300000000000003 -0.224 0.47600000000000003 -0.231 Q 0.483 -0.261 0.483 -0.28 Q 0.483 -0.309 0.461 -0.318 L 0.461 -0.318 Q 0.442 -0.325 0.4 -0.325 L 0.303 -0.325 Z"/></g><g transform="translate(6.592602184268412,10.365352057142855) scale(0.7,0.7)"><path fill="rgb(0,0,0)" stroke="none" paint-order="stroke fill markers" d=" M 0.331 0.24 L 0.331 0.24 Q 0.331 0.25 0.321 0.25 Q 0.309 0.25 0.268 0.209 Q 0.20600000000000002 0.147 0.165 0.062 Q 0.099 -0.074 0.099 -0.25 Q 0.099 -0.419 0.162 -0.555 Q 0.214 -0.666 0.294 -0.733 Q 0.315 -0.75 0.321 -0.75 Q 0.331 -0.75 0.331 -0.74 Q 0.331 -0.735 0.318 -0.723 Q 0.157 -0.559 0.157 -0.25 Q 0.157 0.058 0.314 0.218 Q 0.331 0.23500000000000001 0.331 0.24 Z"/></g><g transform="translate(6.864902184268413,10.365352057142855) scale(0.7,0.7)"><path fill="rgb(0,0,0)" stroke="none" paint-order="stroke fill markers" d=" M 0.28400000000000003 -0.625 Q 0.28400000000000003 -0.594 0.253 -0.578 Q 0.242 -0.5720000000000001 0.231 -0.5720000000000001 Q 0.201 -0.5720000000000001 0.194 -0.599 Q 0.193 -0.604 0.193 -0.608 Q 0.193 -0.636 0.221 -0.653 Q 0.234 -0.661 0.247 -0.661 Q 0.277 -0.661 0.28300000000000003 -0.634 L 0.28300000000000003 -0.633 Q 0.28400000000000003 -0.629 0.28400000000000003 -0.625 M 0.20800000000000002 -0.249 L 0.169 -0.14400000000000002 Q 0.14100000000000001 -0.063 0.14 -0.044 Q 0.14 -0.011 0.164 -0.011 Q 0.227 -0.011 0.262 -0.123 L 0.266 -0.135 Q 0.271 -0.151 0.276 -0.152 L 0.276 -0.153 L 0.281 -0.153 Q 0.293 -0.153 0.293 -0.14300000000000002 Q 0.293 -0.125 0.271 -0.079 Q 0.228 0.011 0.162 0.011 Q 0.109 0.011 0.088 -0.033 Q 0.08 -0.051000000000000004 0.08 -0.07100000000000001 Q 0.08 -0.091 0.10300000000000001 -0.151 Q 0.17300000000000001 -0.339 0.17200000000000001 -0.336 Q 0.183 -0.364 0.183 -0.388 Q 0.183 -0.42 0.158 -0.42 Q 0.10300000000000001 -0.42 0.068 -0.329 L 0.068 -0.328 Q 0.062 -0.313 0.057 -0.296 Q 0.046 -0.279 0.041 -0.278 Q 0.029 -0.278 0.029 -0.28800000000000003 Q 0.029 -0.306 0.051000000000000004 -0.35100000000000003 Q 0.094 -0.442 0.161 -0.442 Q 0.214 -0.442 0.23500000000000001 -0.397 Q 0.243 -0.38 0.243 -0.36 Q 0.243 -0.34 0.23 -0.307 Q 0.213 -0.261 0.20800000000000002 -0.249 Z"/></g><g transform="translate(7.106402184268413,10.365352057142855) scale(0.7,0.7)"><path fill="rgb(0,0,0)" stroke="none" paint-order="stroke fill markers" d=" M 0.289 -0.25 L 0.289 -0.25 Q 0.289 -0.081 0.226 0.055 Q 0.17400000000000002 0.166 0.094 0.233 Q 0.073 0.25 0.067 0.25 Q 0.057 0.25 0.057 0.24 Q 0.057 0.23500000000000001 0.07 0.223 Q 0.231 0.059000000000000004 0.231 -0.25 Q 0.231 -0.555 0.081 -0.712 L 0.076 -0.717 Q 0.057 -0.735 0.057 -0.74 Q 0.057 -0.75 0.067 -0.75 Q 0.079 -0.75 0.12 -0.709 Q 0.182 -0.647 0.223 -0.562 Q 0.289 -0.426 0.289 -0.25 Z"/></g><g transform="translate(6.453602184268412,11.025461057142856) scale(0.7,0.7)"><path fill="rgb(0,0,0)" stroke="none" paint-order="stroke fill markers" d=" M 0.396 -0.38 L 0.396 -0.38 Q 0.368 -0.41600000000000004 0.31 -0.42 Q 0.245 -0.42 0.192 -0.354 Q 0.179 -0.338 0.169 -0.32 Q 0.129 -0.247 0.117 -0.148 Q 0.115 -0.132 0.115 -0.12 Q 0.115 -0.038 0.171 -0.017 Q 0.185 -0.011 0.20500000000000002 -0.011 Q 0.295 -0.011 0.367 -0.07100000000000001 Q 0.388 -0.088 0.405 -0.11 Q 0.41200000000000003 -0.12 0.418 -0.12 Q 0.427 -0.12 0.43 -0.107 Q 0.43 -0.096 0.396 -0.064 Q 0.313 0.011 0.203 0.011 Q 0.108 0.011 0.065 -0.065 Q 0.041 -0.106 0.041 -0.158 Q 0.041 -0.26 0.11900000000000001 -0.34700000000000003 Q 0.196 -0.433 0.291 -0.441 Q 0.3 -0.442 0.309 -0.442 Q 0.386 -0.442 0.41600000000000004 -0.395 Q 0.427 -0.377 0.427 -0.356 Q 0.427 -0.312 0.392 -0.296 Q 0.382 -0.292 0.371 -0.292 Q 0.341 -0.292 0.335 -0.318 Q 0.334 -0.322 0.334 -0.327 Q 0.334 -0.34900000000000003 0.352 -0.366 Q 0.366 -0.38 0.396 -0.38 Z"/></g><g transform="translate(6.756702184268412,11.025461057142856) scale(0.7,0.7)"><path fill="rgb(0,0,0)" stroke="none" paint-order="stroke fill markers" d=" M 0.486 -0.381 L 0.39 0.001 Q 0.366 0.099 0.28300000000000003 0.16 Q 0.222 0.20500000000000002 0.156 0.20500000000000002 Q 0.089 0.20500000000000002 0.061 0.159 Q 0.05 0.14 0.05 0.11800000000000001 Q 0.05 0.067 0.091 0.055 Q 0.099 0.053 0.106 0.053 Q 0.138 0.053 0.14200000000000002 0.081 Q 0.14300000000000002 0.084 0.14300000000000002 0.088 Q 0.14300000000000002 0.111 0.123 0.129 Q 0.109 0.14100000000000001 0.08 0.14100000000000001 Q 0.098 0.183 0.156 0.183 Q 0.218 0.183 0.266 0.12 Q 0.305 0.068 0.328 -0.021 Q 0.329 -0.025 0.331 -0.034 Q 0.28600000000000003 0.011 0.23 0.011 Q 0.15 0.011 0.121 -0.048 Q 0.108 -0.074 0.108 -0.108 Q 0.108 -0.163 0.161 -0.305 Q 0.163 -0.311 0.166 -0.318 Q 0.183 -0.364 0.183 -0.388 Q 0.183 -0.42 0.158 -0.42 Q 0.10300000000000001 -0.42 0.068 -0.329 L 0.068 -0.328 Q 0.062 -0.313 0.057 -0.296 Q 0.046 -0.279 0.041 -0.278 Q 0.029 -0.278 0.029 -0.28800000000000003 Q 0.029 -0.306 0.05 -0.35100000000000003 Q 0.094 -0.442 0.161 -0.442 Q 0.214 -0.442 0.23500000000000001 -0.397 Q 0.243 -0.38 0.243 -0.36 Q 0.243 -0.339 0.223 -0.28800000000000003 Q 0.17200000000000001 -0.156 0.17200000000000001 -0.092 Q 0.17200000000000001 -0.011 0.234 -0.011 Q 0.292 -0.011 0.335 -0.073 Q 0.34500000000000003 -0.088 0.34700000000000003 -0.096 L 0.392 -0.276 Q 0.399 -0.309 0.41200000000000003 -0.356 Q 0.422 -0.399 0.426 -0.41000000000000003 Q 0.439 -0.431 0.461 -0.431 Q 0.486 -0.426 0.49 -0.404 Q 0.49 -0.395 0.486 -0.381 Z"/></g><g transform="translate(7.392934527266984,7.932752057142858)"><path fill="rgb(0,0,0)" stroke="none" paint-order="stroke fill markers" d=" M 0.26904296875 1.759765625 L 0.26904296875 0.0341796875 L 0.0048828125 0.0341796875 L 0.0048828125 -0.0390625 L 0.341796875 -0.0390625 L 0.341796875 1.759765625 L 0.26904296875 1.759765625 Z"/></g><g transform="translate(7.392934527266984,9.732752057142857)"><path fill="rgb(0,0,0)" stroke="none" paint-order="stroke fill markers" d=" M 0.0048828125 1.7587890625 L 0.0048828125 1.68603515625 L 0.26904296875 1.68603515625 L 0.26904296875 -0.0400390625 L 0.341796875 -0.0400390625 L 0.341796875 1.7587890625 L 0.0048828125 1.7587890625 Z"/></g><g transform="translate(8.337712305044763,9.942752057142858)"><path fill="rgb(0,0,0)" stroke="none" paint-order="stroke fill markers" d=" M 0.687 -0.327 L 0.09 -0.327 Q 0.058 -0.327 0.056 -0.34700000000000003 Q 0.056 -0.367 0.089 -0.367 L 0.6880000000000001 -0.367 Q 0.72 -0.367 0.721 -0.34700000000000003 Q 0.721 -0.327 0.687 -0.327 M 0.6880000000000001 -0.133 L 0.089 -0.133 Q 0.057 -0.133 0.056 -0.153 Q 0.056 -0.17300000000000001 0.09 -0.17300000000000001 L 0.687 -0.17300000000000001 Q 0.719 -0.17300000000000001 0.721 -0.153 Q 0.721 -0.133 0.6880000000000001 -0.133 Z"/></g><g transform="translate(9.508423911323256,8.498502857142858) scale(0.7,0.7)"><path fill="rgb(0,0,0)" stroke="none" paint-order="stroke fill markers" d=" M 0.756 -0.578 L 0.616 -0.021 Q 0.611 -0.002 0.606 -0.001 L 0.605 0 L 0.6 0 Q 0.59 0 0.584 -0.012 Q 0.583 -0.015 0.581 -0.019 L 0.332 -0.608 L 0.323 -0.626 L 0.191 -0.098 Q 0.187 -0.083 0.187 -0.075 Q 0.187 -0.041 0.23 -0.033 Q 0.24 -0.031 0.253 -0.031 Q 0.273 -0.031 0.273 -0.02 Q 0.273 0 0.255 0 L 0.155 -0.003 L 0.152 -0.003 L 0.053 0 L 0.052000000000000005 0 Q 0.039 0 0.039 -0.011 Q 0.039 -0.031 0.056 -0.031 Q 0.135 -0.034 0.156 -0.081 Q 0.16 -0.091 0.164 -0.106 L 0.298 -0.643 Q 0.298 -0.652 0.23 -0.652 Q 0.20400000000000001 -0.652 0.202 -0.663 Q 0.202 -0.681 0.217 -0.683 L 0.231 -0.683 L 0.365 -0.683 Q 0.386 -0.683 0.391 -0.676 Q 0.393 -0.673 0.397 -0.664 L 0.618 -0.14200000000000002 L 0.73 -0.587 Q 0.733 -0.596 0.733 -0.608 Q 0.733 -0.651 0.665 -0.652 Q 0.647 -0.652 0.647 -0.663 Q 0.647 -0.683 0.665 -0.683 L 0.766 -0.68 L 0.767 -0.68 L 0.867 -0.683 L 0.868 -0.683 Q 0.881 -0.683 0.881 -0.672 Q 0.881 -0.652 0.864 -0.652 Q 0.786 -0.649 0.764 -0.603 L 0.764 -0.603 Q 0.76 -0.593 0.756 -0.578 Z"/></g><g transform="translate(10.146823911323256,8.132142857142858) scale(0.5,0.5)"><path fill="rgb(0,0,0)" stroke="none" paint-order="stroke fill markers" d=" M 0.331 0.24 L 0.331 0.24 Q 0.331 0.25 0.321 0.25 Q 0.309 0.25 0.268 0.209 Q 0.20600000000000002 0.147 0.165 0.062 Q 0.099 -0.074 0.099 -0.25 Q 0.099 -0.419 0.162 -0.555 Q 0.214 -0.666 0.294 -0.733 Q 0.315 -0.75 0.321 -0.75 Q 0.331 -0.75 0.331 -0.74 Q 0.331 -0.735 0.318 -0.723 Q 0.157 -0.559 0.157 -0.25 Q 0.157 0.058 0.314 0.218 Q 0.331 0.23500000000000001 0.331 0.24 Z"/></g><g transform="translate(10.341323911323256,8.132142857142858) scale(0.5,0.5)"><path fill="rgb(0,0,0)" stroke="none" paint-order="stroke fill markers" d=" M 0.28400000000000003 -0.625 Q 0.28400000000000003 -0.594 0.253 -0.578 Q 0.242 -0.5720000000000001 0.231 -0.5720000000000001 Q 0.201 -0.5720000000000001 0.194 -0.599 Q 0.193 -0.604 0.193 -0.608 Q 0.193 -0.636 0.221 -0.653 Q 0.234 -0.661 0.247 -0.661 Q 0.277 -0.661 0.28300000000000003 -0.634 L 0.28300000000000003 -0.633 Q 0.28400000000000003 -0.629 0.28400000000000003 -0.625 M 0.20800000000000002 -0.249 L 0.169 -0.14400000000000002 Q 0.14100000000000001 -0.063 0.14 -0.044 Q 0.14 -0.011 0.164 -0.011 Q 0.227 -0.011 0.262 -0.123 L 0.266 -0.135 Q 0.271 -0.151 0.276 -0.152 L 0.276 -0.153 L 0.281 -0.153 Q 0.293 -0.153 0.293 -0.14300000000000002 Q 0.293 -0.125 0.271 -0.079 Q 0.228 0.011 0.162 0.011 Q 0.109 0.011 0.088 -0.033 Q 0.08 -0.051000000000000004 0.08 -0.07100000000000001 Q 0.08 -0.091 0.10300000000000001 -0.151 Q 0.17300000000000001 -0.339 0.17200000000000001 -0.336 Q 0.183 -0.364 0.183 -0.388 Q 0.183 -0.42 0.158 -0.42 Q 0.10300000000000001 -0.42 0.068 -0.329 L 0.068 -0.328 Q 0.062 -0.313 0.057 -0.296 Q 0.046 -0.279 0.041 -0.278 Q 0.029 -0.278 0.029 -0.28800000000000003 Q 0.029 -0.306 0.051000000000000004 -0.35100000000000003 Q 0.094 -0.442 0.161 -0.442 Q 0.214 -0.442 0.23500000000000001 -0.397 Q 0.243 -0.38 0.243 -0.36 Q 0.243 -0.34 0.23 -0.307 Q 0.213 -0.261 0.20800000000000002 -0.249 Z"/></g><g transform="translate(10.513823911323255,8.132142857142858) scale(0.5,0.5)"><path fill="rgb(0,0,0)" stroke="none" paint-order="stroke fill markers" d=" M 0.289 -0.25 L 0.289 -0.25 Q 0.289 -0.081 0.226 0.055 Q 0.17400000000000002 0.166 0.094 0.233 Q 0.073 0.25 0.067 0.25 Q 0.057 0.25 0.057 0.24 Q 0.057 0.23500000000000001 0.07 0.223 Q 0.231 0.059000000000000004 0.231 -0.25 Q 0.231 -0.555 0.081 -0.712 L 0.076 -0.717 Q 0.057 -0.735 0.057 -0.74 Q 0.057 -0.75 0.067 -0.75 Q 0.079 -0.75 0.12 -0.709 Q 0.182 -0.647 0.223 -0.562 Q 0.289 -0.426 0.289 -0.25 Z"/></g><g transform="translate(10.070523911323257,8.584640057142858) scale(0.5,0.5)"><path fill="rgb(0,0,0)" stroke="none" paint-order="stroke fill markers" d=" M 0.045 0.122 L 0.045 0.122 L 0.157 -0.323 Q 0.164 -0.353 0.164 -0.374 Q 0.164 -0.42 0.133 -0.42 Q 0.092 -0.42 0.066 -0.325 Q 0.063 -0.314 0.06 -0.301 Q 0.049 -0.279 0.043000000000000003 -0.278 Q 0.031 -0.278 0.031 -0.28800000000000003 Q 0.031 -0.304 0.049 -0.355 Q 0.056 -0.373 0.062 -0.385 Q 0.08600000000000001 -0.434 0.122 -0.441 Q 0.129 -0.442 0.136 -0.442 Q 0.19 -0.442 0.215 -0.398 L 0.215 -0.397 Q 0.223 -0.384 0.226 -0.367 Q 0.289 -0.442 0.357 -0.442 Q 0.428 -0.442 0.466 -0.378 Q 0.488 -0.333 0.49 -0.28200000000000003 Q 0.49 -0.17400000000000002 0.41400000000000003 -0.082 Q 0.34500000000000003 0.002 0.263 0.01 Q 0.256 0.011 0.249 0.011 Q 0.186 0.011 0.157 -0.053 Q 0.12 0.079 0.109 0.14100000000000001 Q 0.108 0.146 0.108 0.147 Q 0.108 0.158 0.121 0.161 L 0.122 0.161 L 0.122 0.161 Q 0.134 0.163 0.158 0.163 Q 0.18 0.163 0.182 0.17400000000000002 Q 0.182 0.194 0.164 0.194 L 0.066 0.191 L 0.065 0.191 L -0.017 0.194 L -0.019 0.194 Q -0.032 0.194 -0.032 0.182 Q -0.026000000000000002 0.164 -0.009000000000000001 0.163 Q 0.028 0.163 0.036000000000000004 0.15 L 0.037 0.149 Q 0.039 0.145 0.041 0.138 Q 0.042 0.133 0.045 0.122 M 0.221 -0.312 L 0.221 -0.312 L 0.17200000000000001 -0.116 Q 0.169 -0.10400000000000001 0.169 -0.1 Q 0.169 -0.077 0.187 -0.048 Q 0.198 -0.029 0.215 -0.019 Q 0.23 -0.011 0.248 -0.011 Q 0.299 -0.011 0.34400000000000003 -0.075 Q 0.357 -0.093 0.367 -0.114 Q 0.394 -0.171 0.41200000000000003 -0.268 Q 0.418 -0.303 0.418 -0.326 Q 0.418 -0.405 0.37 -0.418 Q 0.362 -0.42 0.354 -0.42 Q 0.316 -0.42 0.273 -0.382 Q 0.23 -0.34600000000000003 0.221 -0.312 Z"/></g><g transform="translate(9.393490082822542,8.892752057142859)"><path fill="rgb(0,0,0)" stroke="none" paint-order="stroke fill markers" d=" M 0.06591796875 1.39990234375 Q 0.05615234375 1.39990234375 0.05615234375 1.38916015625 Q 0.05615234375 1.384765625 0.05908203125 1.3818359375 L 0.5869140625 0.76708984375 L 0.05908203125 0.0439453125 Q 0.05615234375 0.041015625 0.05615234375 0.0390625 L 0.05615234375 0.0087890625 Q 0.05615234375 0.00537109375 0.059326171875 0.002685546875 Q 0.0625 0 0.06591796875 0 L 1.26611328125 0 L 1.38720703125 0.28076171875 L 1.35791015625 0.28076171875 Q 1.3115234375 0.17431640625 1.20263671875 0.123046875 Q 1.09375 0.07177734375 0.975341796875 0.059814453125 Q 0.85693359375 0.0478515625 0.7001953125 0.0478515625 L 0.23779296875 0.0478515625 L 0.7099609375 0.69287109375 Q 0.7119140625 0.69677734375 0.7119140625 0.7001953125 Q 0.7119140625 0.703125 0.7099609375 0.70703125 L 0.19091796875 1.31103515625 L 0.7099609375 1.31103515625 Q 0.86376953125 1.31103515625 0.982666015625 1.299072265625 Q 1.1015625 1.287109375 1.209228515625 1.235595703125 Q 1.31689453125 1.18408203125 1.35791015625 1.078125 L 1.38720703125 1.078125 L 1.26611328125 1.39990234375 L 0.06591796875 1.39990234375 Z"/></g><g transform="translate(9.504040082822542,11.02141905714286) scale(0.7,0.7)"><path fill="rgb(0,0,0)" stroke="none" paint-order="stroke fill markers" d=" M 0.397 -0.625 Q 0.397 -0.597 0.369 -0.58 Q 0.356 -0.5720000000000001 0.343 -0.5720000000000001 Q 0.313 -0.5720000000000001 0.307 -0.599 L 0.307 -0.6 Q 0.306 -0.604 0.306 -0.608 Q 0.306 -0.639 0.337 -0.655 Q 0.34800000000000003 -0.661 0.359 -0.661 Q 0.389 -0.661 0.396 -0.634 Q 0.397 -0.629 0.397 -0.625 M 0.196 0.05 L 0.196 0.05 L 0.29 -0.323 Q 0.297 -0.353 0.297 -0.374 Q 0.297 -0.42 0.265 -0.42 Q 0.20400000000000001 -0.42 0.155 -0.332 Q 0.146 -0.316 0.139 -0.298 Q 0.127 -0.279 0.121 -0.278 Q 0.109 -0.278 0.109 -0.28800000000000003 Q 0.109 -0.301 0.135 -0.34500000000000003 Q 0.193 -0.442 0.268 -0.442 Q 0.324 -0.442 0.34900000000000003 -0.397 Q 0.36 -0.376 0.36 -0.35000000000000003 Q 0.36 -0.333 0.355 -0.313 L 0.263 0.053 Q 0.241 0.14 0.159 0.183 Q 0.117 0.20500000000000002 0.075 0.20500000000000002 Q 0.012 0.20500000000000002 -0.007 0.167 Q -0.013000000000000001 0.156 -0.013000000000000001 0.14300000000000002 Q -0.013000000000000001 0.105 0.021 0.09 Q 0.031 0.08600000000000001 0.041 0.08600000000000001 Q 0.07200000000000001 0.08600000000000001 0.078 0.113 Q 0.079 0.117 0.079 0.121 Q 0.079 0.151 0.051000000000000004 0.167 Q 0.043000000000000003 0.17200000000000001 0.034 0.17400000000000002 Q 0.052000000000000005 0.183 0.073 0.183 Q 0.132 0.183 0.17200000000000001 0.111 Q 0.188 0.083 0.196 0.05 Z"/></g><g transform="translate(9.832340082822542,11.02141905714286) scale(0.7,0.7)"><path fill="rgb(0,0,0)" stroke="none" paint-order="stroke fill markers" d=" M 0.687 -0.327 L 0.09 -0.327 Q 0.058 -0.327 0.056 -0.34700000000000003 Q 0.056 -0.367 0.089 -0.367 L 0.6880000000000001 -0.367 Q 0.72 -0.367 0.721 -0.34700000000000003 Q 0.721 -0.327 0.687 -0.327 M 0.6880000000000001 -0.133 L 0.089 -0.133 Q 0.057 -0.133 0.056 -0.153 Q 0.056 -0.17300000000000001 0.09 -0.17300000000000001 L 0.687 -0.17300000000000001 Q 0.719 -0.17300000000000001 0.721 -0.153 Q 0.721 -0.133 0.6880000000000001 -0.133 Z"/></g><g transform="translate(10.376940082822543,11.02141905714286) scale(0.7,0.7)"><path fill="rgb(0,0,0)" stroke="none" paint-order="stroke fill markers" d=" M 0.294 -0.64 L 0.294 -0.079 Q 0.294 -0.049 0.306 -0.041 Q 0.323 -0.031 0.387 -0.031 L 0.419 -0.031 L 0.419 0 Q 0.384 -0.003 0.257 -0.003 Q 0.13 -0.003 0.095 0 L 0.095 -0.031 L 0.127 -0.031 Q 0.20400000000000001 -0.031 0.215 -0.049 L 0.216 -0.05 Q 0.22 -0.058 0.22 -0.079 L 0.22 -0.597 Q 0.168 -0.5710000000000001 0.089 -0.5710000000000001 L 0.089 -0.602 Q 0.209 -0.602 0.271 -0.666 Q 0.29 -0.666 0.293 -0.659 L 0.293 -0.659 L 0.293 -0.658 Q 0.294 -0.655 0.294 -0.64 Z"/></g><g transform="translate(11.004156749489207,9.942752057142858)"><path fill="rgb(0,0,0)" stroke="none" paint-order="stroke fill markers" d=" M 0.661 -0.23 L 0.116 -0.23 Q 0.084 -0.23 0.083 -0.25 Q 0.083 -0.27 0.116 -0.27 L 0.661 -0.27 Q 0.6930000000000001 -0.27 0.6940000000000001 -0.25 Q 0.6940000000000001 -0.23 0.661 -0.23 Z"/></g><g transform="translate(11.782156749489207,9.942752057142858)"><path fill="rgb(0,0,0)" stroke="none" paint-order="stroke fill markers" d=" M 0.28700000000000003 -0.683 L 0.183 -0.261 Q 0.226 -0.278 0.294 -0.354 Q 0.373 -0.442 0.44 -0.442 Q 0.488 -0.442 0.504 -0.402 Q 0.508 -0.391 0.508 -0.379 Q 0.508 -0.338 0.47400000000000003 -0.322 Q 0.463 -0.318 0.453 -0.318 Q 0.422 -0.318 0.41600000000000004 -0.34500000000000003 Q 0.41500000000000004 -0.34900000000000003 0.41500000000000004 -0.353 Q 0.41500000000000004 -0.381 0.44 -0.397 L 0.441 -0.398 L 0.441 -0.398 Q 0.454 -0.406 0.47200000000000003 -0.40700000000000003 L 0.468 -0.41100000000000003 Q 0.46 -0.417 0.447 -0.419 Q 0.445 -0.42 0.438 -0.42 Q 0.385 -0.42 0.309 -0.339 Q 0.305 -0.335 0.301 -0.33 L 0.295 -0.324 Q 0.243 -0.27 0.209 -0.25 Q 0.357 -0.231 0.357 -0.145 Q 0.357 -0.131 0.353 -0.114 Q 0.34500000000000003 -0.082 0.34500000000000003 -0.058 Q 0.34500000000000003 -0.011 0.377 -0.011 Q 0.423 -0.011 0.451 -0.094 Q 0.458 -0.111 0.464 -0.135 Q 0.47200000000000003 -0.152 0.47800000000000004 -0.153 Q 0.49 -0.153 0.49 -0.14300000000000002 Q 0.49 -0.127 0.47100000000000003 -0.078 Q 0.463 -0.058 0.454 -0.042 Q 0.422 0.011 0.375 0.011 Q 0.32 0.011 0.295 -0.037 Q 0.28300000000000003 -0.06 0.28300000000000003 -0.088 Q 0.28300000000000003 -0.099 0.28700000000000003 -0.123 Q 0.29 -0.133 0.29 -0.14400000000000002 Q 0.29 -0.20700000000000002 0.2 -0.225 Q 0.187 -0.228 0.17400000000000002 -0.229 Q 0.124 -0.021 0.11800000000000001 -0.01 Q 0.108 0.009000000000000001 0.084 0.011 Q 0.06 0.011 0.056 -0.01 Q 0.055 -0.014 0.055 -0.017 Q 0.055 -0.025 0.059000000000000004 -0.039 L 0.20400000000000001 -0.615 L 0.20700000000000002 -0.635 Q 0.20700000000000002 -0.646 0.193 -0.649 L 0.193 -0.649 Q 0.181 -0.652 0.157 -0.652 Q 0.135 -0.652 0.133 -0.664 Q 0.133 -0.681 0.152 -0.684 L 0.274 -0.6940000000000001 Q 0.28700000000000003 -0.6940000000000001 0.28700000000000003 -0.683 Z"/></g><g transform="translate(12.303156749489208,10.092752057142858) scale(0.7,0.7)"><path fill="rgb(0,0,0)" stroke="none" paint-order="stroke fill markers" d=" M 0.396 -0.38 L 0.396 -0.38 Q 0.368 -0.41600000000000004 0.31 -0.42 Q 0.245 -0.42 0.192 -0.354 Q 0.179 -0.338 0.169 -0.32 Q 0.129 -0.247 0.117 -0.148 Q 0.115 -0.132 0.115 -0.12 Q 0.115 -0.038 0.171 -0.017 Q 0.185 -0.011 0.20500000000000002 -0.011 Q 0.295 -0.011 0.367 -0.07100000000000001 Q 0.388 -0.088 0.405 -0.11 Q 0.41200000000000003 -0.12 0.418 -0.12 Q 0.427 -0.12 0.43 -0.107 Q 0.43 -0.096 0.396 -0.064 Q 0.313 0.011 0.203 0.011 Q 0.108 0.011 0.065 -0.065 Q 0.041 -0.106 0.041 -0.158 Q 0.041 -0.26 0.11900000000000001 -0.34700000000000003 Q 0.196 -0.433 0.291 -0.441 Q 0.3 -0.442 0.309 -0.442 Q 0.386 -0.442 0.41600000000000004 -0.395 Q 0.427 -0.377 0.427 -0.356 Q 0.427 -0.312 0.392 -0.296 Q 0.382 -0.292 0.371 -0.292 Q 0.341 -0.292 0.335 -0.318 Q 0.334 -0.322 0.334 -0.327 Q 0.334 -0.34900000000000003 0.352 -0.366 Q 0.366 -0.38 0.396 -0.38 Z"/></g><g transform="translate(12.606256749489207,9.942752057142858)"><path fill="rgb(0,0,0)" stroke="none" paint-order="stroke fill markers" d=" M 0.264 -0.437 Q 0.213 -0.537 0.20600000000000002 -0.581 Q 0.20400000000000001 -0.595 0.20400000000000001 -0.608 Q 0.20400000000000001 -0.687 0.276 -0.706 Q 0.295 -0.711 0.318 -0.711 Q 0.34800000000000003 -0.711 0.4 -0.7000000000000001 Q 0.442 -0.6910000000000001 0.448 -0.681 Q 0.452 -0.676 0.452 -0.667 Q 0.452 -0.644 0.43 -0.632 Q 0.422 -0.627 0.41200000000000003 -0.627 Q 0.399 -0.627 0.357 -0.652 Q 0.316 -0.679 0.28600000000000003 -0.679 Q 0.247 -0.679 0.234 -0.649 Q 0.231 -0.641 0.231 -0.633 Q 0.231 -0.588 0.326 -0.46900000000000003 Q 0.374 -0.406 0.388 -0.364 Q 0.4 -0.326 0.4 -0.28300000000000003 Q 0.4 -0.169 0.34 -0.078 Q 0.281 0.012 0.2 0.012 Q 0.113 0.012 0.069 -0.058 Q 0.042 -0.1 0.042 -0.156 Q 0.042 -0.257 0.117 -0.34400000000000003 Q 0.18 -0.417 0.264 -0.437 M 0.276 -0.41500000000000004 Q 0.17200000000000001 -0.387 0.125 -0.245 Q 0.10400000000000001 -0.18 0.10400000000000001 -0.128 Q 0.10400000000000001 -0.044 0.161 -0.018000000000000002 Q 0.179 -0.01 0.2 -0.01 Q 0.268 -0.01 0.307 -0.11900000000000001 Q 0.331 -0.186 0.331 -0.243 Q 0.331 -0.313 0.28300000000000003 -0.403 Q 0.281 -0.406 0.276 -0.41500000000000004 Z"/></g><g transform="translate(13.088256749489206,9.519027657142859) scale(0.7,0.7)"><path fill="rgb(0,0,0)" stroke="none" paint-order="stroke fill markers" d=" M 0.331 0.24 L 0.331 0.24 Q 0.331 0.25 0.321 0.25 Q 0.309 0.25 0.268 0.209 Q 0.20600000000000002 0.147 0.165 0.062 Q 0.099 -0.074 0.099 -0.25 Q 0.099 -0.419 0.162 -0.555 Q 0.214 -0.666 0.294 -0.733 Q 0.315 -0.75 0.321 -0.75 Q 0.331 -0.75 0.331 -0.74 Q 0.331 -0.735 0.318 -0.723 Q 0.157 -0.559 0.157 -0.25 Q 0.157 0.058 0.314 0.218 Q 0.331 0.23500000000000001 0.331 0.24 Z"/></g><g transform="translate(13.360556749489206,9.519027657142859) scale(0.7,0.7)"><path fill="rgb(0,0,0)" stroke="none" paint-order="stroke fill markers" d=" M 0.28400000000000003 -0.625 Q 0.28400000000000003 -0.594 0.253 -0.578 Q 0.242 -0.5720000000000001 0.231 -0.5720000000000001 Q 0.201 -0.5720000000000001 0.194 -0.599 Q 0.193 -0.604 0.193 -0.608 Q 0.193 -0.636 0.221 -0.653 Q 0.234 -0.661 0.247 -0.661 Q 0.277 -0.661 0.28300000000000003 -0.634 L 0.28300000000000003 -0.633 Q 0.28400000000000003 -0.629 0.28400000000000003 -0.625 M 0.20800000000000002 -0.249 L 0.169 -0.14400000000000002 Q 0.14100000000000001 -0.063 0.14 -0.044 Q 0.14 -0.011 0.164 -0.011 Q 0.227 -0.011 0.262 -0.123 L 0.266 -0.135 Q 0.271 -0.151 0.276 -0.152 L 0.276 -0.153 L 0.281 -0.153 Q 0.293 -0.153 0.293 -0.14300000000000002 Q 0.293 -0.125 0.271 -0.079 Q 0.228 0.011 0.162 0.011 Q 0.109 0.011 0.088 -0.033 Q 0.08 -0.051000000000000004 0.08 -0.07100000000000001 Q 0.08 -0.091 0.10300000000000001 -0.151 Q 0.17300000000000001 -0.339 0.17200000000000001 -0.336 Q 0.183 -0.364 0.183 -0.388 Q 0.183 -0.42 0.158 -0.42 Q 0.10300000000000001 -0.42 0.068 -0.329 L 0.068 -0.328 Q 0.062 -0.313 0.057 -0.296 Q 0.046 -0.279 0.041 -0.278 Q 0.029 -0.278 0.029 -0.28800000000000003 Q 0.029 -0.306 0.051000000000000004 -0.35100000000000003 Q 0.094 -0.442 0.161 -0.442 Q 0.214 -0.442 0.23500000000000001 -0.397 Q 0.243 -0.38 0.243 -0.36 Q 0.243 -0.34 0.23 -0.307 Q 0.213 -0.261 0.20800000000000002 -0.249 Z"/></g><g transform="translate(13.602056749489206,9.519027657142859) scale(0.7,0.7)"><path fill="rgb(0,0,0)" stroke="none" paint-order="stroke fill markers" d=" M 0.203 -0.001 L 0.203 -0.001 Q 0.203 0.096 0.14 0.169 Q 0.123 0.189 0.112 0.193 Q 0.10200000000000001 0.193 0.10200000000000001 0.182 Q 0.10200000000000001 0.177 0.113 0.166 Q 0.17300000000000001 0.106 0.18 0.019 Q 0.181 0.009000000000000001 0.181 -0.001 Q 0.181 -0.016 0.179 -0.016 Q 0.178 -0.016 0.17400000000000002 -0.013000000000000001 Q 0.16 0 0.139 0 Q 0.10200000000000001 0 0.09 -0.034 Q 0.08600000000000001 -0.043000000000000003 0.08600000000000001 -0.053 Q 0.08600000000000001 -0.089 0.117 -0.10200000000000001 Q 0.127 -0.106 0.139 -0.106 Q 0.183 -0.106 0.198 -0.048 Q 0.203 -0.027 0.203 -0.001 Z"/></g><g transform="translate(13.796656749489205,9.519027657142859) scale(0.7,0.7)"><path fill="rgb(0,0,0)" stroke="none" paint-order="stroke fill markers" d=" M 0.397 -0.625 Q 0.397 -0.597 0.369 -0.58 Q 0.356 -0.5720000000000001 0.343 -0.5720000000000001 Q 0.313 -0.5720000000000001 0.307 -0.599 L 0.307 -0.6 Q 0.306 -0.604 0.306 -0.608 Q 0.306 -0.639 0.337 -0.655 Q 0.34800000000000003 -0.661 0.359 -0.661 Q 0.389 -0.661 0.396 -0.634 Q 0.397 -0.629 0.397 -0.625 M 0.196 0.05 L 0.196 0.05 L 0.29 -0.323 Q 0.297 -0.353 0.297 -0.374 Q 0.297 -0.42 0.265 -0.42 Q 0.20400000000000001 -0.42 0.155 -0.332 Q 0.146 -0.316 0.139 -0.298 Q 0.127 -0.279 0.121 -0.278 Q 0.109 -0.278 0.109 -0.28800000000000003 Q 0.109 -0.301 0.135 -0.34500000000000003 Q 0.193 -0.442 0.268 -0.442 Q 0.324 -0.442 0.34900000000000003 -0.397 Q 0.36 -0.376 0.36 -0.35000000000000003 Q 0.36 -0.333 0.355 -0.313 L 0.263 0.053 Q 0.241 0.14 0.159 0.183 Q 0.117 0.20500000000000002 0.075 0.20500000000000002 Q 0.012 0.20500000000000002 -0.007 0.167 Q -0.013000000000000001 0.156 -0.013000000000000001 0.14300000000000002 Q -0.013000000000000001 0.105 0.021 0.09 Q 0.031 0.08600000000000001 0.041 0.08600000000000001 Q 0.07200000000000001 0.08600000000000001 0.078 0.113 Q 0.079 0.117 0.079 0.121 Q 0.079 0.151 0.051000000000000004 0.167 Q 0.043000000000000003 0.17200000000000001 0.034 0.17400000000000002 Q 0.052000000000000005 0.183 0.073 0.183 Q 0.132 0.183 0.17200000000000001 0.111 Q 0.188 0.083 0.196 0.05 Z"/></g><g transform="translate(14.124956749489206,9.519027657142859) scale(0.7,0.7)"><path fill="rgb(0,0,0)" stroke="none" paint-order="stroke fill markers" d=" M 0.289 -0.25 L 0.289 -0.25 Q 0.289 -0.081 0.226 0.055 Q 0.17400000000000002 0.166 0.094 0.233 Q 0.073 0.25 0.067 0.25 Q 0.057 0.25 0.057 0.24 Q 0.057 0.23500000000000001 0.07 0.223 Q 0.231 0.059000000000000004 0.231 -0.25 Q 0.231 -0.555 0.081 -0.712 L 0.076 -0.717 Q 0.057 -0.735 0.057 -0.74 Q 0.057 -0.75 0.067 -0.75 Q 0.079 -0.75 0.12 -0.709 Q 0.182 -0.647 0.223 -0.562 Q 0.289 -0.426 0.289 -0.25 Z"/></g><g transform="translate(14.411489092487779,9.942752057142858)"><path fill="rgb(0,0,0)" stroke="none" paint-order="stroke fill markers" d=" M 0.045 -0.047 L 0.114 -0.047 L 0.114 -0.356 Q 0.114 -0.384 0.10350000000000001 -0.3895 Q 0.093 -0.395 0.045 -0.395 L 0.045 -0.442 L 0.217 -0.45 L 0.217 -0.342 Q 0.272 -0.45 0.392 -0.45 Q 0.46900000000000003 -0.45 0.5075000000000001 -0.4165 Q 0.546 -0.383 0.546 -0.306 L 0.546 -0.047 L 0.615 -0.047 L 0.615 0 Q 0.531 -0.003 0.489 -0.003 Q 0.447 -0.003 0.363 0 L 0.363 -0.047 L 0.432 -0.047 L 0.432 -0.317 Q 0.432 -0.371 0.418 -0.3925 Q 0.404 -0.41400000000000003 0.377 -0.41400000000000003 Q 0.322 -0.41400000000000003 0.275 -0.3725 Q 0.228 -0.331 0.228 -0.256 L 0.228 -0.047 L 0.297 -0.047 L 0.297 0 Q 0.213 -0.003 0.171 -0.003 Q 0.129 -0.003 0.045 0 L 0.045 -0.047 Z"/></g><g transform="translate(15.050489092487778,9.529860057142859) scale(0.7,0.7)"><path fill="rgb(0,0,0)" stroke="none" paint-order="stroke fill markers" d=" M 0.331 0.24 L 0.331 0.24 Q 0.331 0.25 0.321 0.25 Q 0.309 0.25 0.268 0.209 Q 0.20600000000000002 0.147 0.165 0.062 Q 0.099 -0.074 0.099 -0.25 Q 0.099 -0.419 0.162 -0.555 Q 0.214 -0.666 0.294 -0.733 Q 0.315 -0.75 0.321 -0.75 Q 0.331 -0.75 0.331 -0.74 Q 0.331 -0.735 0.318 -0.723 Q 0.157 -0.559 0.157 -0.25 Q 0.157 0.058 0.314 0.218 Q 0.331 0.23500000000000001 0.331 0.24 Z"/></g><g transform="translate(15.322789092487778,9.529860057142859) scale(0.7,0.7)"><path fill="rgb(0,0,0)" stroke="none" paint-order="stroke fill markers" d=" M 0.28400000000000003 -0.625 Q 0.28400000000000003 -0.594 0.253 -0.578 Q 0.242 -0.5720000000000001 0.231 -0.5720000000000001 Q 0.201 -0.5720000000000001 0.194 -0.599 Q 0.193 -0.604 0.193 -0.608 Q 0.193 -0.636 0.221 -0.653 Q 0.234 -0.661 0.247 -0.661 Q 0.277 -0.661 0.28300000000000003 -0.634 L 0.28300000000000003 -0.633 Q 0.28400000000000003 -0.629 0.28400000000000003 -0.625 M 0.20800000000000002 -0.249 L 0.169 -0.14400000000000002 Q 0.14100000000000001 -0.063 0.14 -0.044 Q 0.14 -0.011 0.164 -0.011 Q 0.227 -0.011 0.262 -0.123 L 0.266 -0.135 Q 0.271 -0.151 0.276 -0.152 L 0.276 -0.153 L 0.281 -0.153 Q 0.293 -0.153 0.293 -0.14300000000000002 Q 0.293 -0.125 0.271 -0.079 Q 0.228 0.011 0.162 0.011 Q 0.109 0.011 0.088 -0.033 Q 0.08 -0.051000000000000004 0.08 -0.07100000000000001 Q 0.08 -0.091 0.10300000000000001 -0.151 Q 0.17300000000000001 -0.339 0.17200000000000001 -0.336 Q 0.183 -0.364 0.183 -0.388 Q 0.183 -0.42 0.158 -0.42 Q 0.10300000000000001 -0.42 0.068 -0.329 L 0.068 -0.328 Q 0.062 -0.313 0.057 -0.296 Q 0.046 -0.279 0.041 -0.278 Q 0.029 -0.278 0.029 -0.28800000000000003 Q 0.029 -0.306 0.051000000000000004 -0.35100000000000003 Q 0.094 -0.442 0.161 -0.442 Q 0.214 -0.442 0.23500000000000001 -0.397 Q 0.243 -0.38 0.243 -0.36 Q 0.243 -0.34 0.23 -0.307 Q 0.213 -0.261 0.20800000000000002 -0.249 Z"/></g><g transform="translate(15.564289092487778,9.529860057142859) scale(0.7,0.7)"><path fill="rgb(0,0,0)" stroke="none" paint-order="stroke fill markers" d=" M 0.203 -0.001 L 0.203 -0.001 Q 0.203 0.096 0.14 0.169 Q 0.123 0.189 0.112 0.193 Q 0.10200000000000001 0.193 0.10200000000000001 0.182 Q 0.10200000000000001 0.177 0.113 0.166 Q 0.17300000000000001 0.106 0.18 0.019 Q 0.181 0.009000000000000001 0.181 -0.001 Q 0.181 -0.016 0.179 -0.016 Q 0.178 -0.016 0.17400000000000002 -0.013000000000000001 Q 0.16 0 0.139 0 Q 0.10200000000000001 0 0.09 -0.034 Q 0.08600000000000001 -0.043000000000000003 0.08600000000000001 -0.053 Q 0.08600000000000001 -0.089 0.117 -0.10200000000000001 Q 0.127 -0.106 0.139 -0.106 Q 0.183 -0.106 0.198 -0.048 Q 0.203 -0.027 0.203 -0.001 Z"/></g><g transform="translate(15.758889092487777,9.529860057142859) scale(0.7,0.7)"><path fill="rgb(0,0,0)" stroke="none" paint-order="stroke fill markers" d=" M 0.397 -0.625 Q 0.397 -0.597 0.369 -0.58 Q 0.356 -0.5720000000000001 0.343 -0.5720000000000001 Q 0.313 -0.5720000000000001 0.307 -0.599 L 0.307 -0.6 Q 0.306 -0.604 0.306 -0.608 Q 0.306 -0.639 0.337 -0.655 Q 0.34800000000000003 -0.661 0.359 -0.661 Q 0.389 -0.661 0.396 -0.634 Q 0.397 -0.629 0.397 -0.625 M 0.196 0.05 L 0.196 0.05 L 0.29 -0.323 Q 0.297 -0.353 0.297 -0.374 Q 0.297 -0.42 0.265 -0.42 Q 0.20400000000000001 -0.42 0.155 -0.332 Q 0.146 -0.316 0.139 -0.298 Q 0.127 -0.279 0.121 -0.278 Q 0.109 -0.278 0.109 -0.28800000000000003 Q 0.109 -0.301 0.135 -0.34500000000000003 Q 0.193 -0.442 0.268 -0.442 Q 0.324 -0.442 0.34900000000000003 -0.397 Q 0.36 -0.376 0.36 -0.35000000000000003 Q 0.36 -0.333 0.355 -0.313 L 0.263 0.053 Q 0.241 0.14 0.159 0.183 Q 0.117 0.20500000000000002 0.075 0.20500000000000002 Q 0.012 0.20500000000000002 -0.007 0.167 Q -0.013000000000000001 0.156 -0.013000000000000001 0.14300000000000002 Q -0.013000000000000001 0.105 0.021 0.09 Q 0.031 0.08600000000000001 0.041 0.08600000000000001 Q 0.07200000000000001 0.08600000000000001 0.078 0.113 Q 0.079 0.117 0.079 0.121 Q 0.079 0.151 0.051000000000000004 0.167 Q 0.043000000000000003 0.17200000000000001 0.034 0.17400000000000002 Q 0.052000000000000005 0.183 0.073 0.183 Q 0.132 0.183 0.17200000000000001 0.111 Q 0.188 0.083 0.196 0.05 Z"/></g><g transform="translate(16.087189092487776,9.529860057142859) scale(0.7,0.7)"><path fill="rgb(0,0,0)" stroke="none" paint-order="stroke fill markers" d=" M 0.289 -0.25 L 0.289 -0.25 Q 0.289 -0.081 0.226 0.055 Q 0.17400000000000002 0.166 0.094 0.233 Q 0.073 0.25 0.067 0.25 Q 0.057 0.25 0.057 0.24 Q 0.057 0.23500000000000001 0.07 0.223 Q 0.231 0.059000000000000004 0.231 -0.25 Q 0.231 -0.555 0.081 -0.712 L 0.076 -0.717 Q 0.057 -0.735 0.057 -0.74 Q 0.057 -0.75 0.067 -0.75 Q 0.079 -0.75 0.12 -0.709 Q 0.182 -0.647 0.223 -0.562 Q 0.289 -0.426 0.289 -0.25 Z"/></g><g transform="translate(16.59594365770857,9.942752057142858)"><path fill="rgb(0,0,0)" stroke="none" paint-order="stroke fill markers" d=" M 0.661 -0.23 L 0.116 -0.23 Q 0.084 -0.23 0.083 -0.25 Q 0.083 -0.27 0.116 -0.27 L 0.661 -0.27 Q 0.6930000000000001 -0.27 0.6940000000000001 -0.25 Q 0.6940000000000001 -0.23 0.661 -0.23 Z"/></g><g transform="translate(17.59616587993079,9.942752057142858)"><path fill="rgb(0,0,0)" stroke="none" paint-order="stroke fill markers" d=" M 0.488 -0.277 L 0.488 -0.277 L 0.374 0.176 Q 0.363 0.215 0.333 0.216 Q 0.31 0.216 0.306 0.195 Q 0.305 0.192 0.305 0.189 Q 0.305 0.185 0.308 0.17300000000000001 L 0.422 -0.28700000000000003 Q 0.432 -0.327 0.432 -0.35000000000000003 Q 0.432 -0.42 0.378 -0.42 Q 0.33 -0.42 0.28200000000000003 -0.385 Q 0.245 -0.356 0.217 -0.299 L 0.214 -0.293 Q 0.21 -0.269 0.203 -0.248 Q 0.198 -0.225 0.186 -0.181 L 0.164 -0.091 Q 0.147 -0.022 0.145 -0.017 Q 0.136 0.009000000000000001 0.108 0.011 Q 0.083 0.006 0.079 -0.016 Q 0.079 -0.014 0.088 -0.059000000000000004 L 0.146 -0.29 Q 0.162 -0.354 0.162 -0.374 Q 0.162 -0.42 0.131 -0.42 Q 0.09 -0.42 0.064 -0.325 Q 0.061 -0.314 0.058 -0.301 Q 0.047 -0.279 0.041 -0.278 Q 0.029 -0.278 0.029 -0.28800000000000003 Q 0.029 -0.304 0.047 -0.355 Q 0.054 -0.373 0.06 -0.385 Q 0.084 -0.434 0.12 -0.441 Q 0.127 -0.442 0.134 -0.442 Q 0.188 -0.442 0.214 -0.397 Q 0.224 -0.378 0.226 -0.355 Q 0.277 -0.429 0.356 -0.44 Q 0.368 -0.442 0.381 -0.442 Q 0.47000000000000003 -0.442 0.491 -0.373 L 0.491 -0.372 Q 0.496 -0.355 0.496 -0.335 Q 0.496 -0.306 0.488 -0.277 Z"/></g><g transform="translate(18.12916587993079,9.942752057142858)"><path fill="rgb(0,0,0)" stroke="none" paint-order="stroke fill markers" d=" M 0.74 -0.617 L 0.47400000000000003 -0.016 Q 0.46900000000000003 -0.005 0.462 0.0005 Q 0.455 0.006 0.4495 0.007 Q 0.444 0.008 0.434 0.008 Q 0.41500000000000004 0.008 0.40800000000000003 0.0025 Q 0.401 -0.003 0.394 -0.018000000000000002 L 0.11800000000000001 -0.639 L 0.026000000000000002 -0.639 L 0.026000000000000002 -0.686 Q 0.061 -0.683 0.184 -0.683 Q 0.323 -0.683 0.361 -0.686 L 0.361 -0.639 L 0.267 -0.639 L 0.48 -0.16 L 0.682 -0.615 L 0.686 -0.627 Q 0.686 -0.639 0.598 -0.639 L 0.598 -0.686 Q 0.637 -0.683 0.729 -0.683 Q 0.741 -0.683 0.76 -0.6835 Q 0.779 -0.684 0.804 -0.685 Q 0.8290000000000001 -0.686 0.842 -0.686 L 0.842 -0.639 L 0.8230000000000001 -0.639 Q 0.788 -0.639 0.77 -0.636 Q 0.752 -0.633 0.748 -0.629 Q 0.744 -0.625 0.74 -0.617 Z"/></g><g transform="translate(19.014165879930793,9.527027657142858) scale(0.7,0.7)"><path fill="rgb(0,0,0)" stroke="none" paint-order="stroke fill markers" d=" M 0.331 0.24 L 0.331 0.24 Q 0.331 0.25 0.321 0.25 Q 0.309 0.25 0.268 0.209 Q 0.20600000000000002 0.147 0.165 0.062 Q 0.099 -0.074 0.099 -0.25 Q 0.099 -0.419 0.162 -0.555 Q 0.214 -0.666 0.294 -0.733 Q 0.315 -0.75 0.321 -0.75 Q 0.331 -0.75 0.331 -0.74 Q 0.331 -0.735 0.318 -0.723 Q 0.157 -0.559 0.157 -0.25 Q 0.157 0.058 0.314 0.218 Q 0.331 0.23500000000000001 0.331 0.24 Z"/></g><g transform="translate(19.286465879930795,9.527027657142858) scale(0.7,0.7)"><path fill="rgb(0,0,0)" stroke="none" paint-order="stroke fill markers" d=" M 0.28400000000000003 -0.625 Q 0.28400000000000003 -0.594 0.253 -0.578 Q 0.242 -0.5720000000000001 0.231 -0.5720000000000001 Q 0.201 -0.5720000000000001 0.194 -0.599 Q 0.193 -0.604 0.193 -0.608 Q 0.193 -0.636 0.221 -0.653 Q 0.234 -0.661 0.247 -0.661 Q 0.277 -0.661 0.28300000000000003 -0.634 L 0.28300000000000003 -0.633 Q 0.28400000000000003 -0.629 0.28400000000000003 -0.625 M 0.20800000000000002 -0.249 L 0.169 -0.14400000000000002 Q 0.14100000000000001 -0.063 0.14 -0.044 Q 0.14 -0.011 0.164 -0.011 Q 0.227 -0.011 0.262 -0.123 L 0.266 -0.135 Q 0.271 -0.151 0.276 -0.152 L 0.276 -0.153 L 0.281 -0.153 Q 0.293 -0.153 0.293 -0.14300000000000002 Q 0.293 -0.125 0.271 -0.079 Q 0.228 0.011 0.162 0.011 Q 0.109 0.011 0.088 -0.033 Q 0.08 -0.051000000000000004 0.08 -0.07100000000000001 Q 0.08 -0.091 0.10300000000000001 -0.151 Q 0.17300000000000001 -0.339 0.17200000000000001 -0.336 Q 0.183 -0.364 0.183 -0.388 Q 0.183 -0.42 0.158 -0.42 Q 0.10300000000000001 -0.42 0.068 -0.329 L 0.068 -0.328 Q 0.062 -0.313 0.057 -0.296 Q 0.046 -0.279 0.041 -0.278 Q 0.029 -0.278 0.029 -0.28800000000000003 Q 0.029 -0.306 0.051000000000000004 -0.35100000000000003 Q 0.094 -0.442 0.161 -0.442 Q 0.214 -0.442 0.23500000000000001 -0.397 Q 0.243 -0.38 0.243 -0.36 Q 0.243 -0.34 0.23 -0.307 Q 0.213 -0.261 0.20800000000000002 -0.249 Z"/></g><g transform="translate(19.527965879930793,9.527027657142858) scale(0.7,0.7)"><path fill="rgb(0,0,0)" stroke="none" paint-order="stroke fill markers" d=" M 0.203 -0.001 L 0.203 -0.001 Q 0.203 0.096 0.14 0.169 Q 0.123 0.189 0.112 0.193 Q 0.10200000000000001 0.193 0.10200000000000001 0.182 Q 0.10200000000000001 0.177 0.113 0.166 Q 0.17300000000000001 0.106 0.18 0.019 Q 0.181 0.009000000000000001 0.181 -0.001 Q 0.181 -0.016 0.179 -0.016 Q 0.178 -0.016 0.17400000000000002 -0.013000000000000001 Q 0.16 0 0.139 0 Q 0.10200000000000001 0 0.09 -0.034 Q 0.08600000000000001 -0.043000000000000003 0.08600000000000001 -0.053 Q 0.08600000000000001 -0.089 0.117 -0.10200000000000001 Q 0.127 -0.106 0.139 -0.106 Q 0.183 -0.106 0.198 -0.048 Q 0.203 -0.027 0.203 -0.001 Z"/></g><g transform="translate(19.722565879930794,9.527027657142858) scale(0.7,0.7)"><path fill="rgb(0,0,0)" stroke="none" paint-order="stroke fill markers" d=" M 0.397 -0.625 Q 0.397 -0.597 0.369 -0.58 Q 0.356 -0.5720000000000001 0.343 -0.5720000000000001 Q 0.313 -0.5720000000000001 0.307 -0.599 L 0.307 -0.6 Q 0.306 -0.604 0.306 -0.608 Q 0.306 -0.639 0.337 -0.655 Q 0.34800000000000003 -0.661 0.359 -0.661 Q 0.389 -0.661 0.396 -0.634 Q 0.397 -0.629 0.397 -0.625 M 0.196 0.05 L 0.196 0.05 L 0.29 -0.323 Q 0.297 -0.353 0.297 -0.374 Q 0.297 -0.42 0.265 -0.42 Q 0.20400000000000001 -0.42 0.155 -0.332 Q 0.146 -0.316 0.139 -0.298 Q 0.127 -0.279 0.121 -0.278 Q 0.109 -0.278 0.109 -0.28800000000000003 Q 0.109 -0.301 0.135 -0.34500000000000003 Q 0.193 -0.442 0.268 -0.442 Q 0.324 -0.442 0.34900000000000003 -0.397 Q 0.36 -0.376 0.36 -0.35000000000000003 Q 0.36 -0.333 0.355 -0.313 L 0.263 0.053 Q 0.241 0.14 0.159 0.183 Q 0.117 0.20500000000000002 0.075 0.20500000000000002 Q 0.012 0.20500000000000002 -0.007 0.167 Q -0.013000000000000001 0.156 -0.013000000000000001 0.14300000000000002 Q -0.013000000000000001 0.105 0.021 0.09 Q 0.031 0.08600000000000001 0.041 0.08600000000000001 Q 0.07200000000000001 0.08600000000000001 0.078 0.113 Q 0.079 0.117 0.079 0.121 Q 0.079 0.151 0.051000000000000004 0.167 Q 0.043000000000000003 0.17200000000000001 0.034 0.17400000000000002 Q 0.052000000000000005 0.183 0.073 0.183 Q 0.132 0.183 0.17200000000000001 0.111 Q 0.188 0.083 0.196 0.05 Z"/></g><g transform="translate(20.050865879930793,9.527027657142858) scale(0.7,0.7)"><path fill="rgb(0,0,0)" stroke="none" paint-order="stroke fill markers" d=" M 0.289 -0.25 L 0.289 -0.25 Q 0.289 -0.081 0.226 0.055 Q 0.17400000000000002 0.166 0.094 0.233 Q 0.073 0.25 0.067 0.25 Q 0.057 0.25 0.057 0.24 Q 0.057 0.23500000000000001 0.07 0.223 Q 0.231 0.059000000000000004 0.231 -0.25 Q 0.231 -0.555 0.081 -0.712 L 0.076 -0.717 Q 0.057 -0.735 0.057 -0.74 Q 0.057 -0.75 0.067 -0.75 Q 0.079 -0.75 0.12 -0.709 Q 0.182 -0.647 0.223 -0.562 Q 0.289 -0.426 0.289 -0.25 Z"/></g></g><path fill="rgb(255,255,255)" stroke="none" paint-order="stroke fill markers" fill-rule="evenodd" d=" M 37.5 109 L 166.5 109 C 168.43299662440776 109 170 110.56700337559222 170 112.5 L 170 139.5 C 170 141.43299662440776 168.43299662440776 143 166.5 143 L 37.5 143 C 35.56700337559222 143 34 141.43299662440776 34 139.5 L 34 112.5 C 34 110.56700337559222 35.56700337559222 109 37.5 109 Z" fill-opacity="1"/><path fill="none" stroke="rgb(0,0,0)" paint-order="fill stroke markers" d=" M 37.5 109 L 166.5 109 C 168.43299662440776 109 170 110.56700337559222 170 112.5 L 170 139.5 C 170 141.43299662440776 168.43299662440776 143 166.5 143 L 37.5 143 C 35.56700337559222 143 34 141.43299662440776 34 139.5 L 34 112.5 C 34 110.56700337559222 35.56700337559222 109 37.5 109 Z" stroke-opacity="1" stroke-linecap="round" stroke-linejoin="round" stroke-miterlimit="10"/><text fill="rgb(0,0,0)" stroke="none" font-family="geogebra-sans-serif, sans-serif" font-size="24px" font-style="normal" font-weight="normal" text-decoration="normal" x="44" y="136" text-anchor="start" dominant-baseline="alphabetic" fill-opacity="1">Show SVG</text><path fill="rgb(255,255,255)" stroke="none" paint-order="stroke fill markers" fill-rule="evenodd" d=" M 204.5 106 L 380.5 106 C 382.4329966244078 106 384 107.56700337559222 384 109.5 L 384 136.5 C 384 138.43299662440776 382.4329966244078 140 380.5 140 L 204.5 140 C 202.56700337559224 140 201 138.43299662440776 201 136.5 L 201 109.5 C 201 107.56700337559222 202.56700337559224 106 204.5 106 Z" fill-opacity="1"/><path fill="none" stroke="rgb(0,0,0)" paint-order="fill stroke markers" d=" M 204.5 106 L 380.5 106 C 382.4329966244078 106 384 107.56700337559222 384 109.5 L 384 136.5 C 384 138.43299662440776 382.4329966244078 140 380.5 140 L 204.5 140 C 202.56700337559224 140 201 138.43299662440776 201 136.5 L 201 109.5 C 201 107.56700337559222 202.56700337559224 106 204.5 106 Z" stroke-opacity="1" stroke-linecap="round" stroke-linejoin="round" stroke-miterlimit="10"/><text fill="rgb(0,0,0)" stroke="none" font-family="geogebra-sans-serif, sans-serif" font-size="24px" font-style="normal" font-weight="normal" text-decoration="normal" x="211" y="133" text-anchor="start" dominant-baseline="alphabetic" fill-opacity="1">Download SVG</text><path fill="rgb(255,255,255)" stroke="none" paint-order="stroke fill markers" fill-rule="evenodd" d=" M 212 30 L 722 30 C 724.2091389993232 30 726 31.790861000676827 726 34 L 726 75 C 726 77.20913899932317 724.2091389993232 79 722 79 L 212 79 C 209.7908610006768 79 208 77.20913899932317 208 75 L 208 34 C 208 31.790861000676827 209.7908610006768 30 212 30 Z" fill-opacity="1"/><path fill="none" stroke="rgb(0,0,0)" paint-order="fill stroke markers" d=" M 212 30 L 722 30 C 724.2091389993232 30 726 31.790861000676827 726 34 L 726 75 C 726 77.20913899932317 724.2091389993232 79 722 79 L 212 79 C 209.7908610006768 79 208 77.20913899932317 208 75 L 208 34 C 208 31.790861000676827 209.7908610006768 30 212 30 Z" stroke-opacity="1" stroke-linecap="round" stroke-linejoin="round" stroke-miterlimit="10"/><text fill="rgb(0,0,0)" stroke="none" font-family="geogebra-sans-serif, sans-serif" font-size="32px" font-style="normal" font-weight="normal" text-decoration="normal" x="210" y="66" text-anchor="start" dominant-baseline="alphabetic" fill-opacity="1">\mathbf{F}</text><text fill="rgb(0,0,0)" stroke="none" font-family="geogebra-sans-serif, sans-serif" font-size="28px" font-style="normal" font-weight="normal" text-decoration="normal" x="358" y="80" text-anchor="start" dominant-baseline="alphabetic" fill-opacity="1">c</text><text fill="rgb(0,0,0)" stroke="none" font-family="geogebra-sans-serif, sans-serif" font-size="32px" font-style="normal" font-weight="normal" text-decoration="normal" x="372" y="66" text-anchor="start" dominant-baseline="alphabetic" fill-opacity="1">^{(i)} = \begin{bmatrix</text><text fill="rgb(0,0,0)" stroke="none" font-family="geogebra-sans-serif, sans-serif" font-size="32px" font-style="normal" font-weight="normal" text-decoration="normal" x="30" y="66" text-anchor="start" dominant-baseline="alphabetic" fill-opacity="1">Enter LaTeX</text></g></g></svg>